<svg id="레이어_1" data-name="레이어 1" xmlns="http://www.w3.org/2000/svg" viewBox="0 0 520.19 200.76"><defs><style>.cls-1{fill:#00bcd4;}.cls-2{fill:#b2ebf2;}</style></defs><title>Primitive_logo</title><path class="cls-1" d="M137.47,53.52q18.21,0,31.22,4.34t21.42,12a47.47,47.47,0,0,1,12.46,18.34,63.75,63.75,0,0,1,4.06,23v3.92a65.3,65.3,0,0,1-4.2,23.38,51.72,51.72,0,0,1-12.88,19.32A63.55,63.55,0,0,1,168,171q-12.87,4.91-30.52,4.9H97.15v63q0,8.12-5.32,11.76a21.79,21.79,0,0,1-12.6,3.64,21.83,21.83,0,0,1-12.6-3.64q-5.31-3.64-5.32-11.76V76.76q0-13.17,5.18-18.2t18.62-5ZM97.15,145.64h35.56q17.64,0,27.72-6.72t10.08-24.36v-3.08q0-8.4-2.52-13.72a21.24,21.24,0,0,0-7.14-8.54,28.65,28.65,0,0,0-11.06-4.48,73,73,0,0,0-14-1.26H97.15Z" transform="translate(-61.31 -53.52)"/><path class="cls-2" d="M153.94,175.29q12.31,0,19,6.1t6.71,16.45v2q0,7.59-3.58,12.59a21.8,21.8,0,0,1-9.73,7.54l13.86,24.53a5.85,5.85,0,0,1,.6,5.17,6.56,6.56,0,0,1-3.46,3.63,9.2,9.2,0,0,1-5.17.88,5.2,5.2,0,0,1-4.07-3.19l-15.07-28.82a6.47,6.47,0,0,1-1.21.11H138v25.85a5.19,5.19,0,0,1-2.09,4.62,9.28,9.28,0,0,1-9.9,0,5.19,5.19,0,0,1-2.09-4.62V184.42q0-5.17,2-7.15t7.32-2ZM138,210.49h12.87q8,0,11.44-2.75c2.27-1.83,3.41-4.55,3.41-8.14v-1.43q0-5.5-3.25-8.31t-10.39-2.8H138Z" transform="translate(-61.31 -53.52)"/><path class="cls-2" d="M203.55,174.63a8.61,8.61,0,0,1,4.95,1.43,5.19,5.19,0,0,1,2.09,4.62v67.43a5.19,5.19,0,0,1-2.09,4.62,9.28,9.28,0,0,1-9.9,0,5.17,5.17,0,0,1-2.09-4.62V180.68a5.17,5.17,0,0,1,2.09-4.62A8.56,8.56,0,0,1,203.55,174.63Z" transform="translate(-61.31 -53.52)"/><path class="cls-2" d="M240.07,175.07a20.34,20.34,0,0,1,4.18.38,7.25,7.25,0,0,1,3.13,1.54,12.29,12.29,0,0,1,2.64,3.36,52,52,0,0,1,2.81,5.94l15.07,37.62,14.41-37.51a38.59,38.59,0,0,1,2.58-5.83,12.26,12.26,0,0,1,2.75-3.41,8.16,8.16,0,0,1,3.3-1.65,18.29,18.29,0,0,1,4.24-.44h2.31q5.28,0,7.31,2t2,7.15v64.24a4.9,4.9,0,0,1-2,4.34,8.07,8.07,0,0,1-4.73,1.38,8,8,0,0,1-4.57-1.38,4.86,4.86,0,0,1-2-4.34V187.39c-.66,2.79-1.29,5.08-1.87,6.87s-1.18,3.47-1.76,5L275.38,235c-1,2.35-2,3.9-3,4.67a7.47,7.47,0,0,1-4.45,1.16,8.51,8.51,0,0,1-5.12-1.27,11.11,11.11,0,0,1-3.13-4.89l-14.19-35.42q-.89-2.21-1.76-5t-2.09-6.93v61.05a4.85,4.85,0,0,1-2,4.34,8.12,8.12,0,0,1-4.67,1.38,7.69,7.69,0,0,1-4.51-1.38,4.9,4.9,0,0,1-2-4.34V184.2c0-3.45.67-5.83,2-7.15s3.8-2,7.32-2Z" transform="translate(-61.31 -53.52)"/><path class="cls-2" d="M331.7,174.63a8.61,8.61,0,0,1,4.95,1.43,5.19,5.19,0,0,1,2.09,4.62v67.43a5.19,5.19,0,0,1-2.09,4.62,9.28,9.28,0,0,1-9.9,0,5.17,5.17,0,0,1-2.09-4.62V180.68a5.17,5.17,0,0,1,2.09-4.62A8.56,8.56,0,0,1,331.7,174.63Z" transform="translate(-61.31 -53.52)"/><path class="cls-2" d="M405.07,175.29a4.24,4.24,0,0,1,3.74,1.76,7.82,7.82,0,0,1,0,8.36,4.24,4.24,0,0,1-3.74,1.76H386.15v60.94a5.19,5.19,0,0,1-2.09,4.62,9.28,9.28,0,0,1-9.9,0,5.17,5.17,0,0,1-2.09-4.62V187.17H353a4.22,4.22,0,0,1-3.74-1.76,7.83,7.83,0,0,1,0-8.36,4.22,4.22,0,0,1,3.74-1.76Z" transform="translate(-61.31 -53.52)"/><path class="cls-2" d="M426.41,174.63a8.61,8.61,0,0,1,4.95,1.43,5.19,5.19,0,0,1,2.09,4.62v67.43a5.19,5.19,0,0,1-2.09,4.62,9.28,9.28,0,0,1-9.9,0,5.17,5.17,0,0,1-2.09-4.62V180.68a5.17,5.17,0,0,1,2.09-4.62A8.56,8.56,0,0,1,426.41,174.63Z" transform="translate(-61.31 -53.52)"/><path class="cls-2" d="M510.45,175.18a6.83,6.83,0,0,1,3.9,3q1.26,2.15.06,5.34l-24.86,64.13q-1.55,3.86-3.69,5.17a9.35,9.35,0,0,1-5,1.32,9.15,9.15,0,0,1-4.9-1.32q-2.15-1.32-3.68-5.17l-24.2-64q-1.21-3.19.05-5.34a7.3,7.3,0,0,1,4-3.13,8.86,8.86,0,0,1,5.5-.22,5.65,5.65,0,0,1,3.85,3.85l19.69,57.31L501.32,179a6.11,6.11,0,0,1,3.74-4A8.28,8.28,0,0,1,510.45,175.18Z" transform="translate(-61.31 -53.52)"/><path class="cls-2" d="M575.89,175.29a4.15,4.15,0,0,1,3.69,1.7,7.83,7.83,0,0,1,0,8.2,4.1,4.1,0,0,1-3.69,1.76H543v20.79h30.7a4,4,0,0,1,3.57,1.7,7.58,7.58,0,0,1,0,8,4,4,0,0,1-3.57,1.71H543v22.66h33.67a4.09,4.09,0,0,1,3.68,1.76,7.24,7.24,0,0,1,1.15,4.07,7.15,7.15,0,0,1-1.15,4.12,4.12,4.12,0,0,1-3.68,1.71H538.38q-5.26,0-7.31-2c-1.36-1.32-2-3.7-2-7.15v-60c0-3.45.67-5.83,2-7.15s3.8-2,7.31-2Z" transform="translate(-61.31 -53.52)"/></svg>